<mxfile>
    <diagram id="N9SuoyrHUggPcApN77_N" name="Page-1">
        <mxGraphModel dx="4868" dy="3456" grid="1" gridSize="10" guides="1" tooltips="1" connect="1" arrows="1" fold="1" page="1" pageScale="1" pageWidth="827" pageHeight="1169" math="0" shadow="0">
            <root>
                <mxCell id="0"/>
                <mxCell id="1" parent="0"/>
                <mxCell id="2" value="&lt;span style=&quot;color: rgba(0 , 0 , 0 , 0.87) ; font-family: monospace , monospace ; font-size: 14px ; background-color: rgb(255 , 255 , 255)&quot;&gt;main process&lt;/span&gt;" style="rounded=1;whiteSpace=wrap;html=1;" vertex="1" parent="1">
                    <mxGeometry x="390" y="170" width="120" height="60" as="geometry"/>
                </mxCell>
                <mxCell id="3" value="&lt;span style=&quot;color: rgba(0 , 0 , 0 , 0.87) ; font-family: monospace , monospace ; font-size: 14px ; background-color: rgb(255 , 255 , 255)&quot;&gt;render process&lt;/span&gt;" style="rounded=1;whiteSpace=wrap;html=1;verticalAlign=top;" vertex="1" parent="1">
                    <mxGeometry x="150" y="150" width="200" height="120" as="geometry"/>
                </mxCell>
                <mxCell id="4" value="iframe" style="rounded=0;whiteSpace=wrap;html=1;verticalAlign=top;align=left;" vertex="1" parent="1">
                    <mxGeometry x="150" y="190" width="200" height="80" as="geometry"/>
                </mxCell>
                <mxCell id="5" value="Flask HTML" style="shape=document;whiteSpace=wrap;html=1;boundedLbl=1;verticalAlign=top;" vertex="1" parent="1">
                    <mxGeometry x="160" y="213" width="180" height="52" as="geometry"/>
                </mxCell>
                <mxCell id="14" value="" style="endArrow=classic;html=1;entryX=1;entryY=0.25;entryDx=0;entryDy=0;exitX=0;exitY=0.25;exitDx=0;exitDy=0;fillColor=#008a00;strokeColor=#005700;" edge="1" parent="1" source="2" target="3">
                    <mxGeometry width="50" height="50" relative="1" as="geometry">
                        <mxPoint x="200" y="460" as="sourcePoint"/>
                        <mxPoint x="250" y="410" as="targetPoint"/>
                    </mxGeometry>
                </mxCell>
                <mxCell id="16" value="" style="endArrow=classic;html=1;exitX=0.18;exitY=0.183;exitDx=0;exitDy=0;exitPerimeter=0;entryX=0.105;entryY=0.1;entryDx=0;entryDy=0;entryPerimeter=0;fillColor=#008a00;strokeColor=#005700;" edge="1" parent="1" source="3" target="4">
                    <mxGeometry width="50" height="50" relative="1" as="geometry">
                        <mxPoint x="170" y="220" as="sourcePoint"/>
                        <mxPoint x="220" y="170" as="targetPoint"/>
                    </mxGeometry>
                </mxCell>
                <mxCell id="17" value="" style="endArrow=none;dashed=1;html=1;dashPattern=1 2;strokeWidth=1;entryX=0.18;entryY=0.225;entryDx=0;entryDy=0;entryPerimeter=0;exitX=0.144;exitY=0.123;exitDx=0;exitDy=0;exitPerimeter=0;fillColor=#60a917;strokeColor=#2D7600;" edge="1" parent="1" source="5" target="4">
                    <mxGeometry width="50" height="50" relative="1" as="geometry">
                        <mxPoint x="90" y="260" as="sourcePoint"/>
                        <mxPoint x="140" y="210" as="targetPoint"/>
                    </mxGeometry>
                </mxCell>
            </root>
        </mxGraphModel>
    </diagram>
</mxfile>